<svg width="245" height="245" viewBox="0 0 245 245" fill="none" xmlns="http://www.w3.org/2000/svg">
<rect width="245" height="245" rx="122.5" fill="white"/>
<path d="M115.229 64.5C132.48 64.5 147.321 75.2916 153.225 90.3877C146.739 89.413 140.106 90.2309 134.053 92.7559C130.083 86.6491 123.184 82.6338 115.229 82.6338C102.755 82.6338 92.8174 92.4683 92.8174 104.835C92.8174 116.178 101.183 125.374 112.192 126.82C112.458 134.125 114.997 141.172 119.467 146.987C122.691 151.2 126.826 154.635 131.562 157.048L119.805 176.924C118.985 178.026 118.225 178.891 117.491 179.494C116.756 180.099 116.074 180.421 115.412 180.487C114.112 180.617 112.597 179.771 110.61 177.199L81.9619 128.004L81.9512 127.984L81.9375 127.966L81.5049 127.347C77.0911 120.903 74.5 113.154 74.5 104.835C74.5001 82.6717 92.8399 64.5 115.229 64.5Z" fill="#FC4E01" stroke="white"/>
<path d="M130.999 103.487C137.403 98.5839 145.204 96.7586 152.62 97.7686C160.036 98.7786 167.071 102.623 171.948 109.062C180.984 120.991 179.457 137.692 168.999 147.881L170.928 150.427C171.46 150.386 171.973 150.435 172.437 150.585C172.989 150.764 173.459 151.081 173.795 151.524L190.957 174.182C191.261 174.583 191.438 175.064 191.486 175.585C191.535 176.104 191.455 176.652 191.268 177.194C191.08 177.737 190.786 178.272 190.407 178.771C190.028 179.271 189.568 179.73 189.054 180.124C188.02 180.916 186.801 181.416 185.653 181.49C184.505 181.565 183.464 181.205 182.844 180.387L165.681 157.73C165.345 157.287 165.166 156.748 165.142 156.166C165.121 155.676 165.21 155.166 165.392 154.661L163.466 152.118C150.914 159.54 134.491 156.574 125.454 144.646C115.703 131.772 118.192 113.291 130.999 103.487ZM151.633 105.078C148.79 104.689 145.899 104.869 143.126 105.608C140.353 106.348 137.752 107.631 135.475 109.386L135.473 109.387C133.186 111.129 131.264 113.308 129.817 115.8C128.371 118.291 127.428 121.045 127.043 123.904C126.658 126.763 126.839 129.67 127.574 132.459C128.264 135.073 129.428 137.535 131.008 139.721L131.329 140.153L131.33 140.155C133.063 142.454 135.231 144.386 137.709 145.84C140.187 147.294 142.926 148.242 145.769 148.629C148.611 149.016 151.502 148.835 154.275 148.096C157.048 147.357 159.649 146.074 161.928 144.322L161.93 144.321C164.216 142.579 166.138 140.399 167.585 137.907C169.032 135.416 169.974 132.662 170.359 129.803C170.745 126.944 170.565 124.037 169.829 121.248C169.094 118.459 167.818 115.844 166.074 113.553L166.072 113.551C164.34 111.251 162.172 109.319 159.694 107.865C157.216 106.411 154.477 105.464 151.634 105.078H151.633Z" fill="#6E4D31" stroke="white"/>
</svg>
